<svg xmlns="http://www.w3.org/2000/svg" width="1200" height="760" viewBox="0 0 1200 760">
  <defs>
    <linearGradient id="g" x1="0" y1="0" x2="1" y2="1">
      <stop offset="0" stop-color="#7c5cff" stop-opacity="0.85"/>
      <stop offset="1" stop-color="#22d3ee" stop-opacity="0.70"/>
    </linearGradient>
  </defs>
  <rect width="1200" height="760" rx="30" fill="#0c1118"/>
  <rect x="28" y="28" width="1144" height="704" rx="24" fill="rgba(255,255,255,.04)" stroke="rgba(255,255,255,.12)"/>
  <rect x="56" y="70" width="520" height="50" rx="14" fill="url(#g)" opacity="0.35"/>
  <rect x="56" y="142" width="520" height="26" rx="10" fill="rgba(255,255,255,.05)"/>
  <rect x="56" y="180" width="460" height="26" rx="10" fill="rgba(255,255,255,.05)"/>
  <rect x="56" y="218" width="500" height="26" rx="10" fill="rgba(255,255,255,.05)"/>

  <rect x="620" y="70" width="524" height="620" rx="20" fill="rgba(0,0,0,.25)" stroke="rgba(255,255,255,.10)"/>
  <g fill="rgba(255,255,255,.06)">
    <rect x="650" y="104" width="464" height="120" rx="16"/>
    <rect x="650" y="244" width="464" height="120" rx="16"/>
    <rect x="650" y="384" width="464" height="120" rx="16"/>
    <rect x="650" y="524" width="320" height="110" rx="16"/>
  </g>

  <text x="70" y="110" font-family="ui-sans-serif, system-ui" font-size="22" fill="rgba(231,234,240,.92)" font-weight="700">y' 01AI ê¨\</text>
  <text x="70" y="690" font-family="ui-sans-serif, system-ui" font-size="14" fill="rgba(167,176,192,.9)">*þ`Mÿb:ž§Á*þ	</text>
</svg>
